<svg width="635" height="158" viewBox="0 0 635 158" fill="none" xmlns="http://www.w3.org/2000/svg">
<path d="M151.926 117V35.22H173.27V70.252H173.502L205.286 35.22H230.574L190.206 78.372V69.672L231.85 117H206.446L173.502 80.112H173.27V117H151.926ZM270.889 118.276C264.703 118.276 259.057 117.271 253.953 115.26C248.849 113.249 244.441 110.388 240.729 106.676C237.095 102.887 234.272 98.4013 232.261 93.22C230.328 88.0387 229.361 82.316 229.361 76.052C229.361 69.7107 230.328 63.9493 232.261 58.768C234.272 53.5867 237.095 49.14 240.729 45.428C244.441 41.716 248.849 38.8933 253.953 36.96C259.057 34.9493 264.703 33.944 270.889 33.944C277.076 33.944 282.721 34.9493 287.825 36.96C292.929 38.8933 297.299 41.716 300.933 45.428C304.645 49.14 307.468 53.5867 309.401 58.768C311.412 63.872 312.417 69.5947 312.417 75.936C312.417 82.3547 311.412 88.1547 309.401 93.336C307.468 98.5173 304.645 103.003 300.933 106.792C297.299 110.504 292.929 113.365 287.825 115.376C282.721 117.309 277.076 118.276 270.889 118.276ZM270.889 100.412C274.988 100.412 278.468 99.4453 281.329 97.512C284.191 95.5787 286.395 92.7947 287.941 89.16C289.488 85.5253 290.261 81.156 290.261 76.052C290.261 70.948 289.488 66.5787 287.941 62.944C286.472 59.3093 284.268 56.564 281.329 54.708C278.468 52.7747 274.988 51.808 270.889 51.808C266.868 51.808 263.388 52.7747 260.449 54.708C257.588 56.564 255.384 59.3093 253.837 62.944C252.291 66.5787 251.517 70.948 251.517 76.052C251.517 81.156 252.252 85.5253 253.721 89.16C255.268 92.7947 257.511 95.5787 260.449 97.512C263.388 99.4453 266.868 100.412 270.889 100.412ZM325.02 117V35.22H364.344C373.624 35.22 380.777 37.5013 385.804 42.064C390.908 46.5493 393.46 52.8133 393.46 60.856C393.46 66.0373 392.3 70.5613 389.98 74.428C387.737 78.2173 384.45 81.156 380.12 83.244C375.866 85.2547 370.608 86.26 364.344 86.26L365.272 84.172H370.84C374.165 84.172 377.104 84.984 379.656 86.608C382.208 88.1547 384.334 90.552 386.036 93.8L398.796 117H375.364L361.212 91.016C360.593 89.856 359.858 88.9667 359.008 88.348C358.157 87.7293 357.19 87.2653 356.108 86.956C355.102 86.6467 353.981 86.492 352.744 86.492H346.364V117H325.02ZM346.364 71.412H360.516C364.614 71.412 367.746 70.6 369.912 68.976C372.077 67.352 373.16 64.8387 373.16 61.436C373.16 58.188 372.077 55.752 369.912 54.128C367.746 52.4267 364.614 51.576 360.516 51.576H346.364V71.412ZM436.861 118.276C432.608 118.276 428.432 117.928 424.333 117.232C420.234 116.536 416.445 115.531 412.965 114.216C409.485 112.901 406.469 111.355 403.917 109.576L409.833 92.988C412.23 94.5347 414.898 95.888 417.837 97.048C420.776 98.208 423.869 99.136 427.117 99.832C430.365 100.451 433.613 100.76 436.861 100.76C441.965 100.76 445.522 100.103 447.533 98.788C449.621 97.396 450.665 95.6947 450.665 93.684C450.665 92.4467 450.356 91.4027 449.737 90.552C449.118 89.7013 448.074 88.9667 446.605 88.348C445.213 87.652 443.318 87.072 440.921 86.608L427.349 83.708C419.925 82.1613 414.396 79.4547 410.761 75.588C407.126 71.7213 405.309 66.7333 405.309 60.624C405.309 55.2107 406.74 50.532 409.601 46.588C412.54 42.5667 416.6 39.4733 421.781 37.308C427.04 35.0653 433.072 33.944 439.877 33.944C443.666 33.944 447.301 34.292 450.781 34.988C454.338 35.684 457.625 36.728 460.641 38.12C463.657 39.4347 466.209 40.9813 468.297 42.76L462.381 58.304C459.442 56.1387 456.001 54.476 452.057 53.316C448.19 52.0787 444.053 51.46 439.645 51.46C436.784 51.46 434.348 51.808 432.337 52.504C430.326 53.1227 428.78 54.0507 427.697 55.288C426.692 56.5253 426.189 57.956 426.189 59.58C426.189 61.204 426.846 62.596 428.161 63.756C429.553 64.8387 432.066 65.7667 435.701 66.54L449.157 69.44C456.658 71.064 462.265 73.732 465.977 77.444C469.689 81.156 471.545 85.9893 471.545 91.944C471.545 97.2027 470.114 101.843 467.253 105.864C464.392 109.808 460.37 112.863 455.189 115.028C450.008 117.193 443.898 118.276 436.861 118.276ZM482.028 117V35.22H539.796V51.692H502.444V67.236H537.128V83.708H502.444V100.528H539.796V117H482.028ZM553.281 117V35.22H568.941L609.773 86.144H606.525V35.22H626.245V117H610.701L569.869 65.96H573.117V117H553.281Z" fill="white"/>
<path d="M14.5185 33.7334L0 48.2231L0.0577278 61.9334L0.144319 75.6438L56.4 19.2148H29.0082L14.5185 33.7334Z" fill="#00FF2F"/>
<path d="M19.2811 79.3383L78.9427 139H128.242L126.251 136.893C125.154 135.767 121.344 131.611 117.765 127.656L111.299 120.527H87.3133L46.6152 79.6847L89.3337 37.1105L100.677 37.0816H111.992L117.418 31.2511C120.42 28.0472 124.115 24.0351 125.673 22.3033L128.502 19.2148H79.8087L19.2811 79.3383Z" fill="#00FF2F"/>
<path d="M0 111.493L13.8547 125.261L27.7382 139L41.1022 138.942L54.4662 138.856L0 84.0143V111.493Z" fill="#00FF2F"/>
</svg>
